<svg id="Layer_1" data-name="Layer 1" xmlns="http://www.w3.org/2000/svg" viewBox="0 0 1024 165.69"><defs><style>.cls-1{fill:#1a202c;}</style></defs><path class="cls-1" d="M44.74,137.94,30.65,165.69H0L82.85,0l55.3,110.6H107.08L82.85,61.93,58.41,110.6Zm121,27.75H134.83l-13.67-27.55h30.66Z"/><path class="cls-1" d="M203.37,0V100.45L175.82,128.2V0Zm82.84,137.94v27.75H175.82l27.55-27.75Z"/><path class="cls-1" d="M397.43,119.3,425,128.41a77.3,77.3,0,0,1-13.25,15.33,84.64,84.64,0,0,1-16.36,11.8A71.6,71.6,0,0,1,376.51,163a75.89,75.89,0,0,1-20.71,2.69c-23,0-42.25-8.28-58.41-24.44S273,105.84,273,82.85c0-22.79,8.08-42.26,24.44-58.41C313.34,8.08,332.81,0,355.8,0a81.07,81.07,0,0,1,32.31,6.42,86.09,86.09,0,0,1,26.51,18L394.74,43.91C384,33.14,371.12,27.75,355.8,27.75c-15.12,0-28.17,5.18-39.15,16.16-10.77,10.77-15.94,23.82-15.94,38.94s5.17,28.37,15.94,39.14,24,16,39.15,16a56.49,56.49,0,0,0,23-4.76A57.87,57.87,0,0,0,397.43,119.3ZM355.8,69.18H425L397.43,96.72H355.8Z"/><path class="cls-1" d="M573.9,24.44c16.36,16.15,24.64,35.62,24.64,58.41,0,23-8.28,42.46-24.64,58.4-16.16,16.16-35.42,24.44-58.41,24.44s-42.25-8.28-58.41-24.44-24.44-35.41-24.44-58.4c0-22.79,8.29-42.26,24.44-58.41C473,8.28,492.5,0,515.49,0S557.74,8.28,573.9,24.44ZM476.34,43.91C465.58,54.68,460.4,67.73,460.4,82.85s5.18,28.37,15.94,39.14,24,16,39.15,16,28.17-5.18,38.94-16c11-11,16.15-24,16.15-39.14a53.18,53.18,0,0,0-16.15-38.94,53.19,53.19,0,0,0-38.94-16.16C500.37,27.75,487.32,32.93,476.34,43.91Z"/><path class="cls-1" d="M721.43,82.85A78.35,78.35,0,0,1,715,114.74a90.08,90.08,0,0,1-17.81,26.51,83.94,83.94,0,0,1-26.51,17.81,79.49,79.49,0,0,1-32.1,6.63H583.5L611,137.94h27.55a57.06,57.06,0,0,0,21.54-4.14,54.24,54.24,0,0,0,17.6-12,59.61,59.61,0,0,0,11.81-17.6,54.49,54.49,0,0,0,0-42.67,56.69,56.69,0,0,0-12-17.6,57.58,57.58,0,0,0-17.6-12,56.6,56.6,0,0,0-21.33-4.15H611L583.5,0h55.09a80.23,80.23,0,0,1,32.1,6.63A85.42,85.42,0,0,1,697,24.44,86.79,86.79,0,0,1,715,51,78.4,78.4,0,0,1,721.43,82.85Z"/><path class="cls-1" d="M838,0V27.75H755.18L727.63,0ZM755.18,69.18H838V96.72H727.63V69.18Zm0,68.76H838v27.75H727.63v-2.28Z"/><path class="cls-1" d="M941.77,60.48,924.38,82.85,859.34,0h35.42ZM924.38,82.85l17.39,22.36-47,60.48H859.34Zm35,0L941.77,60.48,989,0h35Zm0,0L1024,165.69H989l-47.23-60.48Z"/></svg>