<svg width="160" height="26" viewBox="0 0 160 26" fill="none" xmlns="http://www.w3.org/2000/svg">
<path d="M6.99138 21.185L4.79127 25.4144H0L12.9465 0.158936L21.5837 17.0178H16.732L12.9465 9.59886L9.10987 17.0178L6.99138 21.185ZM25.8895 25.4144H21.0676L18.9364 21.214H23.7183L25.8895 25.4144Z" fill="#2F3746"/>
<path d="M31.7712 0.158936V15.4711L27.4653 19.7006V0.158936H31.7712ZM44.7176 21.185V25.4144H27.4696L31.7754 21.185H44.7176Z" fill="#2F3746"/>
<path d="M62.0991 18.3456L66.4007 19.7346C65.819 20.5983 65.1223 21.3827 64.3289 22.0675C63.5538 22.766 62.6949 23.3706 61.7709 23.8679C60.8511 24.3815 59.8606 24.7639 58.8295 25.0032C57.7761 25.2877 56.687 25.4273 55.594 25.4178C53.8909 25.4379 52.2018 25.116 50.6317 24.4721C49.0616 23.8283 47.644 22.8762 46.4671 21.6752C45.2362 20.5272 44.2604 19.1444 43.6006 17.6129C42.9407 16.0814 42.6108 14.4338 42.6314 12.7727C42.6099 11.1156 42.9396 9.47204 43.5998 7.94508C44.26 6.41813 45.2364 5.0407 46.4679 3.89916C47.6386 2.69074 49.055 1.7341 50.6265 1.09048C52.198 0.446866 53.8899 0.130454 55.594 0.161507C57.3271 0.147777 59.0447 0.480238 60.6411 1.13842C62.192 1.79805 63.6019 2.73625 64.7973 3.90414L61.6893 6.86888C60.0701 5.29292 57.8762 4.40785 55.5889 4.40785C53.3015 4.40785 51.1076 5.29292 49.4884 6.86888C48.6798 7.63964 48.0416 8.56387 47.6134 9.58455C47.1851 10.6052 46.9758 11.7007 46.9984 12.8033C46.9869 13.9093 47.2017 15.0064 47.6302 16.0304C48.0586 17.0544 48.6921 17.9848 49.4936 18.7671C50.2952 19.5494 51.2486 20.1678 52.2981 20.5863C53.3476 21.0047 54.4721 21.2148 55.6059 21.2042C56.8414 21.2101 58.0644 20.962 59.1951 20.476C60.3011 19.9664 61.289 19.242 62.0982 18.3472L62.0991 18.3456ZM55.594 10.7019H66.4007L62.0991 14.9023H55.594V10.7019Z" fill="#2F3746"/>
<path d="M89.6736 3.90176C90.907 5.04733 91.8844 6.42913 92.5446 7.96051C93.2048 9.4919 93.5336 11.1398 93.5102 12.801C93.5393 14.4635 93.2132 16.1138 92.5527 17.6466C91.8922 19.1795 90.9117 20.5614 89.6736 21.7043C88.4813 22.8845 87.0604 23.8217 85.4935 24.4614C83.9266 25.1011 82.2449 25.4305 80.5463 25.4305C78.8477 25.4305 77.1661 25.1011 75.5992 24.4614C74.0322 23.8217 72.6113 22.8845 71.419 21.7043C70.1878 20.5563 69.2119 19.1734 68.5519 17.6417C67.8919 16.1101 67.5619 14.4623 67.5824 12.801C67.5652 11.1407 67.8968 9.49455 68.5566 7.96403C69.2164 6.4335 70.1906 5.05101 71.419 3.90176C72.6113 2.72155 74.0322 1.78435 75.5992 1.14466C77.1661 0.504962 78.8477 0.175537 80.5463 0.175537C82.2449 0.175537 83.9266 0.504962 85.4935 1.14466C87.0604 1.78435 88.4813 2.72155 89.6736 3.90176ZM74.4285 6.86733C73.6198 7.63809 72.9817 8.56233 72.5534 9.58301C72.1252 10.6037 71.9159 11.6992 71.9385 12.8018C71.927 13.9077 72.1417 15.0047 72.5701 16.0287C72.9985 17.0526 73.632 17.983 74.4334 18.7652C75.2348 19.5475 76.1881 20.166 77.2375 20.5845C78.287 21.003 79.4114 21.2131 80.5451 21.2026C81.6757 21.2239 82.7987 21.0189 83.845 20.6004C84.8913 20.182 85.8386 19.5588 86.6285 18.7694C87.4463 17.9961 88.0924 17.067 88.5266 16.0398C88.9608 15.0127 89.1738 13.9094 89.1525 12.7985C89.1689 11.6937 88.9535 10.5973 88.5194 9.5767C88.0854 8.55613 87.4419 7.63298 86.6285 6.86402C85.0093 5.28805 82.8154 4.40299 80.5281 4.40299C78.2407 4.40299 76.0468 5.28805 74.4276 6.86402L74.4285 6.86733Z" fill="#2F3746"/>
<path d="M112.724 12.7842C112.741 14.4564 112.4 16.1137 111.722 17.6497C111.046 19.1455 110.103 20.5126 108.938 21.6876C107.749 22.8446 106.342 23.7668 104.795 24.4036C103.214 25.0784 101.505 25.4227 99.7791 25.4145H91.1699L95.4928 21.185H99.7986C100.953 21.1848 102.097 20.9645 103.165 20.5365C104.197 20.1094 105.132 19.4874 105.916 18.7063C106.692 17.9264 107.317 17.0165 107.762 16.0202C108.212 14.9929 108.444 13.8873 108.444 12.7701C108.444 11.653 108.212 10.5474 107.762 9.52012C107.317 8.51671 106.681 7.6051 105.886 6.83401C105.094 6.06359 104.162 5.44328 103.137 5.00458C102.078 4.58591 100.946 4.37132 99.8037 4.37265H95.4936L91.1699 0.158981H99.7816C101.507 0.154374 103.215 0.498581 104.797 1.1699C106.332 1.81937 107.726 2.74657 108.907 3.90244C110.094 5.06656 111.05 6.43574 111.725 7.9403C112.399 9.46978 112.739 11.1195 112.724 12.7842Z" fill="#2F3746"/>
<path d="M130.943 0.158936V4.38836H117.997L113.691 0.158936H130.943ZM117.997 10.701H130.943V14.9014H113.691V10.701H117.997ZM117.997 21.185H130.943V25.4144H113.691V25.0694L117.997 21.185Z" fill="#2F3746"/>
<path d="M147.15 9.37826L144.435 12.7842L134.285 0.158936H139.827L147.15 9.37826ZM144.435 12.7842L147.15 16.1943L139.827 25.4136H134.285L144.435 12.7842ZM149.905 12.7842L147.151 9.37826L154.529 0.158936H159.999L149.905 12.7842ZM149.905 12.7842L160 25.4136H154.53L147.151 16.1943L149.905 12.7842Z" fill="#2F3746"/>
</svg>
