<svg xmlns="http://www.w3.org/2000/svg" width="100" height="100" viewBox="0 0 100 100">
  <g id="Group_343" data-name="Group 343" transform="translate(-1879 2734)">
    <g id="icon.37675b59" transform="translate(1909 -2667.416)">
      <circle id="Ellipse_30" data-name="Ellipse 30" cx="50" cy="50" r="50" transform="translate(-30 -66.584)" fill="#245ec7"/>
    </g>
    <g id="Group_342" data-name="Group 342" transform="translate(1979 -2871.562)">
      <path id="logo" d="M54.292,20.375l-.411-1.917-.926,1.917-5.588,12.1L42.618,42.66l-4.123,8.867-2.373,5.107H29.4l5.623-12.1,1.334-2.879-.741-3.385-2.126-9.928-1.714-7.968-.411-1.917-.926,1.917-5.588,12.1L19.229,44.534l-5.623,12.1H6.887l5.623-12.1L18.1,32.475l5.623-12.1,5.485-11.8.137-.256h5.863l.274,1.278,2.126,9.885.206.895,1.92,8.99.686,3.11.062.288.133-.288,5.623-12.1,5.485-11.8.137-.256H57.72l.274,1.278L69.27,56.635H62.55Z" transform="translate(-89.172 151.992)" fill="#fff"/>
    </g>
  </g>
</svg>
