<svg width="151" height="21" viewBox="0 0 151 21" fill="none" xmlns="http://www.w3.org/2000/svg">
<path d="M96.4611 4.10522V16.5595H94.0176V4.10522H96.4611Z" fill="#2F3746"/>
<path d="M106.434 8.16255V16.5873C106.434 19.2023 104.475 20.81 102.078 20.81C99.7677 20.81 98.0414 19.3196 97.8754 17.2152L100.312 17.229C100.412 18.1259 101.169 18.5123 102.165 18.5123C103.108 18.5123 103.984 17.9879 103.984 16.6218V15.5454C103.36 15.9663 102.563 16.2147 101.673 16.2147C99.4424 16.2147 97.6562 14.3379 97.6562 12.1783C97.6562 9.66672 99.449 7.98315 101.673 7.98315C102.57 7.98315 103.36 8.23155 103.984 8.65244V8.19705L106.434 8.16255ZM103.991 13.1235V11.0743C103.493 10.3222 102.802 10.0738 102.118 10.0738C100.916 10.0738 100.08 10.9087 100.08 12.1783C100.08 13.1097 100.916 14.1309 102.118 14.1309C102.802 14.124 103.493 13.8687 103.991 13.1235Z" fill="#2F3746"/>
<path d="M116.183 12.2609C116.183 14.8552 114.337 16.7044 111.86 16.7044C109.363 16.7044 107.518 14.8552 107.518 12.2609C107.518 9.68724 109.363 7.80359 111.86 7.80359C114.337 7.80359 116.183 9.68724 116.183 12.2609ZM113.825 12.2609C113.825 11.0396 113.055 10.0529 111.86 10.0529C110.652 10.0529 109.881 11.0396 109.881 12.2609C109.881 13.5166 110.652 14.455 111.86 14.455C113.049 14.4481 113.825 13.5166 113.825 12.2609Z" fill="#2F3746"/>
<path d="M131.356 8.17642V16.5459L128.959 16.5597V16.0836C128.335 16.5045 127.538 16.7667 126.648 16.7667C124.417 16.7667 122.631 14.8003 122.631 12.3784C122.631 9.94278 124.424 7.97632 126.648 7.97632C127.544 7.97632 128.335 8.23851 128.959 8.6594V8.18331L131.356 8.17642ZM128.959 13.6618V11.0951C128.454 10.3499 127.75 10.1429 127.046 10.1429C125.818 10.1429 124.968 11.164 124.968 12.3853C124.968 13.5928 125.818 14.614 127.046 14.614C127.75 14.6071 128.454 14.407 128.959 13.6618Z" fill="#2F3746"/>
<path d="M141.206 12.0127V16.5597H138.849V12.3094C138.849 10.9432 138.192 10.2187 137.023 10.2187C136.412 10.2187 135.742 10.5844 135.164 11.2882V16.5597H132.754V8.19015H135.164V8.82494C135.822 8.27985 136.585 7.98315 137.495 7.98315C139.646 7.98315 141.206 9.55632 141.206 12.0127Z" fill="#2F3746"/>
<path d="M92.9025 16.5527H90.4126L88.7924 10.2946L85.3065 16.5527H82.5244L87.9027 6.86535L87.0395 3.49822L79.7821 16.5596H77L86.1962 0H88.6331L89.7021 4.11231H92.2186L90.4989 7.21725L92.9025 16.5527Z" fill="#2F3746"/>
<path d="M150.941 4.10529V16.5596H148.498V16.0835C147.874 16.5044 147.077 16.7666 146.187 16.7666C143.956 16.7666 142.17 14.8001 142.17 12.3644C142.17 9.94258 143.963 7.97612 146.187 7.97612C147.083 7.97612 147.874 8.23831 148.498 8.6592V4.09839L150.941 4.10529ZM148.498 13.6685V11.0811C147.986 10.329 147.276 10.122 146.572 10.122C145.337 10.122 144.481 11.1501 144.481 12.3644C144.481 13.5995 145.337 14.6276 146.572 14.6276C147.276 14.6276 147.986 14.4206 148.498 13.6685Z" fill="#2F3746"/>
<path d="M122.192 10.3015C121.66 10.3705 120.412 10.4326 119.682 11.4814V16.5665H117.271V8.20394H119.682V8.83182C120.233 8.34193 121.063 8.05214 122.192 8.16944V10.3015Z" fill="#2F3746"/>
<path d="M4.536 7.76211C5.624 7.76211 6.48 8.02211 7.104 8.54211C7.728 9.06211 8.04 9.77811 8.04 10.6901C8.04 11.6021 7.728 12.3181 7.104 12.8381C6.48 13.3581 5.624 13.6181 4.536 13.6181H2.46V16.1621H1.26V7.76211H4.536ZM4.5 12.5741C5.26 12.5741 5.84 12.4141 6.24 12.0941C6.64 11.7661 6.84 11.2981 6.84 10.6901C6.84 10.0821 6.64 9.61811 6.24 9.29811C5.84 8.97011 5.26 8.80611 4.5 8.80611H2.46V12.5741H4.5ZM12.3355 16.2341C11.7035 16.2341 11.1355 16.0941 10.6315 15.8141C10.1275 15.5341 9.73153 15.1501 9.44353 14.6621C9.16353 14.1661 9.02353 13.6061 9.02353 12.9821C9.02353 12.3581 9.16353 11.8021 9.44353 11.3141C9.73153 10.8181 10.1275 10.4341 10.6315 10.1621C11.1355 9.88211 11.7035 9.74211 12.3355 9.74211C12.9675 9.74211 13.5315 9.88211 14.0275 10.1621C14.5315 10.4341 14.9235 10.8181 15.2035 11.3141C15.4915 11.8021 15.6355 12.3581 15.6355 12.9821C15.6355 13.6061 15.4915 14.1661 15.2035 14.6621C14.9235 15.1501 14.5315 15.5341 14.0275 15.8141C13.5315 16.0941 12.9675 16.2341 12.3355 16.2341ZM12.3355 15.2261C12.7435 15.2261 13.1075 15.1341 13.4275 14.9501C13.7555 14.7581 14.0115 14.4941 14.1955 14.1581C14.3795 13.8141 14.4715 13.4221 14.4715 12.9821C14.4715 12.5421 14.3795 12.1541 14.1955 11.8181C14.0115 11.4741 13.7555 11.2101 13.4275 11.0261C13.1075 10.8421 12.7435 10.7501 12.3355 10.7501C11.9275 10.7501 11.5595 10.8421 11.2315 11.0261C10.9115 11.2101 10.6555 11.4741 10.4635 11.8181C10.2795 12.1541 10.1875 12.5421 10.1875 12.9821C10.1875 13.4221 10.2795 13.8141 10.4635 14.1581C10.6555 14.4941 10.9115 14.7581 11.2315 14.9501C11.5595 15.1341 11.9275 15.2261 12.3355 15.2261ZM26.6769 9.80211L24.3009 16.1621H23.1969L21.3609 11.3381L19.5009 16.1621H18.3969L16.0329 9.80211H17.1249L18.9729 14.8661L20.8929 9.80211H21.8649L23.7489 14.8901L25.6449 9.80211H26.6769ZM33.4181 13.0181C33.4181 13.1061 33.4101 13.2221 33.3941 13.3661H28.2341C28.3061 13.9261 28.5501 14.3781 28.9661 14.7221C29.3901 15.0581 29.9141 15.2261 30.5381 15.2261C31.2981 15.2261 31.9101 14.9701 32.3741 14.4581L33.0101 15.2021C32.7221 15.5381 32.3621 15.7941 31.9301 15.9701C31.5061 16.1461 31.0301 16.2341 30.5021 16.2341C29.8301 16.2341 29.2341 16.0981 28.7141 15.8261C28.1941 15.5461 27.7901 15.1581 27.5021 14.6621C27.2221 14.1661 27.0821 13.6061 27.0821 12.9821C27.0821 12.3661 27.2181 11.8101 27.4901 11.3141C27.7701 10.8181 28.1501 10.4341 28.6301 10.1621C29.1181 9.88211 29.6661 9.74211 30.2741 9.74211C30.8821 9.74211 31.4221 9.88211 31.8941 10.1621C32.3741 10.4341 32.7461 10.8181 33.0101 11.3141C33.2821 11.8101 33.4181 12.3781 33.4181 13.0181ZM30.2741 10.7141C29.7221 10.7141 29.2581 10.8821 28.8821 11.2181C28.5141 11.5541 28.2981 11.9941 28.2341 12.5381H32.3141C32.2501 12.0021 32.0301 11.5661 31.6541 11.2301C31.2861 10.8861 30.8261 10.7141 30.2741 10.7141ZM36.1218 10.8701C36.3218 10.5021 36.6178 10.2221 37.0098 10.0301C37.4018 9.83811 37.8778 9.74211 38.4378 9.74211V10.8581C38.3738 10.8501 38.2858 10.8461 38.1738 10.8461C37.5498 10.8461 37.0578 11.0341 36.6978 11.4101C36.3458 11.7781 36.1698 12.3061 36.1698 12.9941V16.1621H35.0178V9.80211H36.1218V10.8701ZM45.547 13.0181C45.547 13.1061 45.539 13.2221 45.523 13.3661H40.363C40.435 13.9261 40.679 14.3781 41.095 14.7221C41.519 15.0581 42.043 15.2261 42.667 15.2261C43.427 15.2261 44.039 14.9701 44.503 14.4581L45.139 15.2021C44.851 15.5381 44.491 15.7941 44.059 15.9701C43.635 16.1461 43.159 16.2341 42.631 16.2341C41.959 16.2341 41.363 16.0981 40.843 15.8261C40.323 15.5461 39.919 15.1581 39.631 14.6621C39.351 14.1661 39.211 13.6061 39.211 12.9821C39.211 12.3661 39.347 11.8101 39.619 11.3141C39.899 10.8181 40.279 10.4341 40.759 10.1621C41.247 9.88211 41.795 9.74211 42.403 9.74211C43.011 9.74211 43.551 9.88211 44.023 10.1621C44.503 10.4341 44.875 10.8181 45.139 11.3141C45.411 11.8101 45.547 12.3781 45.547 13.0181ZM42.403 10.7141C41.851 10.7141 41.387 10.8821 41.011 11.2181C40.643 11.5541 40.427 11.9941 40.363 12.5381H44.443C44.379 12.0021 44.159 11.5661 43.783 11.2301C43.415 10.8861 42.955 10.7141 42.403 10.7141ZM53.1467 7.25811V16.1621H52.0427V15.1541C51.7867 15.5061 51.4627 15.7741 51.0707 15.9581C50.6787 16.1421 50.2467 16.2341 49.7747 16.2341C49.1587 16.2341 48.6067 16.0981 48.1187 15.8261C47.6307 15.5541 47.2467 15.1741 46.9667 14.6861C46.6947 14.1901 46.5587 13.6221 46.5587 12.9821C46.5587 12.3421 46.6947 11.7781 46.9667 11.2901C47.2467 10.8021 47.6307 10.4221 48.1187 10.1501C48.6067 9.87811 49.1587 9.74211 49.7747 9.74211C50.2307 9.74211 50.6507 9.83011 51.0347 10.0061C51.4187 10.1741 51.7387 10.4261 51.9947 10.7621V7.25811H53.1467ZM49.8707 15.2261C50.2707 15.2261 50.6347 15.1341 50.9627 14.9501C51.2907 14.7581 51.5467 14.4941 51.7307 14.1581C51.9147 13.8141 52.0067 13.4221 52.0067 12.9821C52.0067 12.5421 51.9147 12.1541 51.7307 11.8181C51.5467 11.4741 51.2907 11.2101 50.9627 11.0261C50.6347 10.8421 50.2707 10.7501 49.8707 10.7501C49.4627 10.7501 49.0947 10.8421 48.7667 11.0261C48.4467 11.2101 48.1907 11.4741 47.9987 11.8181C47.8147 12.1541 47.7227 12.5421 47.7227 12.9821C47.7227 13.4221 47.8147 13.8141 47.9987 14.1581C48.1907 14.4941 48.4467 14.7581 48.7667 14.9501C49.0947 15.1341 49.4627 15.2261 49.8707 15.2261ZM61.921 9.74211C62.537 9.74211 63.089 9.87811 63.577 10.1501C64.065 10.4221 64.445 10.8021 64.717 11.2901C64.997 11.7781 65.137 12.3421 65.137 12.9821C65.137 13.6221 64.997 14.1901 64.717 14.6861C64.445 15.1741 64.065 15.5541 63.577 15.8261C63.089 16.0981 62.537 16.2341 61.921 16.2341C61.449 16.2341 61.017 16.1421 60.625 15.9581C60.233 15.7741 59.909 15.5061 59.653 15.1541V16.1621H58.549V7.25811H59.701V10.7621C59.957 10.4261 60.277 10.1741 60.661 10.0061C61.045 9.83011 61.465 9.74211 61.921 9.74211ZM61.825 15.2261C62.233 15.2261 62.597 15.1341 62.917 14.9501C63.245 14.7581 63.501 14.4941 63.685 14.1581C63.877 13.8141 63.973 13.4221 63.973 12.9821C63.973 12.5421 63.877 12.1541 63.685 11.8181C63.501 11.4741 63.245 11.2101 62.917 11.0261C62.597 10.8421 62.233 10.7501 61.825 10.7501C61.425 10.7501 61.061 10.8421 60.733 11.0261C60.405 11.2101 60.149 11.4741 59.965 11.8181C59.781 12.1541 59.689 12.5421 59.689 12.9821C59.689 13.4221 59.781 13.8141 59.965 14.1581C60.149 14.4941 60.405 14.7581 60.733 14.9501C61.061 15.1341 61.425 15.2261 61.825 15.2261ZM72.1809 9.80211L69.0969 16.7981C68.8249 17.4461 68.5049 17.9021 68.1369 18.1661C67.7769 18.4301 67.3409 18.5621 66.8289 18.5621C66.5169 18.5621 66.2129 18.5101 65.9169 18.4061C65.6289 18.3101 65.3889 18.1661 65.1969 17.9741L65.6889 17.1101C66.0169 17.4221 66.3969 17.5781 66.8289 17.5781C67.1089 17.5781 67.3409 17.5021 67.5249 17.3501C67.7169 17.2061 67.8889 16.9541 68.0409 16.5941L68.2449 16.1501L65.4369 9.80211H66.6369L68.8569 14.8901L71.0529 9.80211H72.1809Z" fill="#2F3746"/>
</svg>
